<mxfile host="app.diagrams.net" agent="Mozilla/5.0 (Windows NT 10.0; Win64; x64) AppleWebKit/537.36 (KHTML, like Gecko) Chrome/130.0.0.0 Safari/537.36" version="24.8.4">
  <diagram name="Page-1" id="mIPfH6DdTSyiR5HLp7U_">
    <mxGraphModel dx="1843" dy="1896" grid="1" gridSize="10" guides="1" tooltips="1" connect="1" arrows="1" fold="1" page="1" pageScale="1" pageWidth="850" pageHeight="1100" math="0" shadow="0">
      <root>
        <mxCell id="0" />
        <mxCell id="1" parent="0" />
        <mxCell id="i5YRdk4g1Q5EzU8fsjVX-6" value="" style="group" vertex="1" connectable="0" parent="1">
          <mxGeometry x="300" y="-280" width="960" height="960" as="geometry" />
        </mxCell>
        <mxCell id="i5YRdk4g1Q5EzU8fsjVX-1" value="" style="ellipse;whiteSpace=wrap;html=1;aspect=fixed;container=1;fillColor=#CCFF99;" vertex="1" parent="i5YRdk4g1Q5EzU8fsjVX-6">
          <mxGeometry width="960" height="960" as="geometry" />
        </mxCell>
        <mxCell id="i5YRdk4g1Q5EzU8fsjVX-20" value="" style="shape=actor;whiteSpace=wrap;html=1;" vertex="1" parent="i5YRdk4g1Q5EzU8fsjVX-1">
          <mxGeometry x="430" y="40" width="33.33" height="50" as="geometry" />
        </mxCell>
        <mxCell id="i5YRdk4g1Q5EzU8fsjVX-21" value="" style="shape=actor;whiteSpace=wrap;html=1;" vertex="1" parent="i5YRdk4g1Q5EzU8fsjVX-1">
          <mxGeometry x="50" y="380" width="33.33" height="50" as="geometry" />
        </mxCell>
        <mxCell id="i5YRdk4g1Q5EzU8fsjVX-19" value="" style="shape=actor;whiteSpace=wrap;html=1;" vertex="1" parent="i5YRdk4g1Q5EzU8fsjVX-1">
          <mxGeometry x="260" y="190" width="33.33" height="50" as="geometry" />
        </mxCell>
        <mxCell id="i5YRdk4g1Q5EzU8fsjVX-2" value="" style="ellipse;whiteSpace=wrap;html=1;aspect=fixed;fillColor=#FFFF99;" vertex="1" parent="i5YRdk4g1Q5EzU8fsjVX-6">
          <mxGeometry x="111.30434782608695" y="213.7826086956522" width="737.391304347826" height="737.391304347826" as="geometry" />
        </mxCell>
        <mxCell id="i5YRdk4g1Q5EzU8fsjVX-3" value="" style="ellipse;whiteSpace=wrap;html=1;aspect=fixed;fillColor=#FFE6CC;" vertex="1" parent="i5YRdk4g1Q5EzU8fsjVX-6">
          <mxGeometry x="236.52173913043475" y="456.39130434782606" width="486.95652173913044" height="486.95652173913044" as="geometry" />
        </mxCell>
        <mxCell id="i5YRdk4g1Q5EzU8fsjVX-4" value="" style="ellipse;whiteSpace=wrap;html=1;aspect=fixed;fillColor=#FFCCCC;" vertex="1" parent="i5YRdk4g1Q5EzU8fsjVX-6">
          <mxGeometry x="389.5652173913044" y="756.6521739130435" width="180.86956521739128" height="180.86956521739128" as="geometry" />
        </mxCell>
        <mxCell id="i5YRdk4g1Q5EzU8fsjVX-7" value="" style="shape=actor;whiteSpace=wrap;html=1;" vertex="1" parent="i5YRdk4g1Q5EzU8fsjVX-6">
          <mxGeometry x="280" y="740" width="33.33" height="50" as="geometry" />
        </mxCell>
        <mxCell id="i5YRdk4g1Q5EzU8fsjVX-8" value="" style="shape=actor;whiteSpace=wrap;html=1;" vertex="1" parent="i5YRdk4g1Q5EzU8fsjVX-6">
          <mxGeometry x="640" y="660" width="33.33" height="50" as="geometry" />
        </mxCell>
        <mxCell id="i5YRdk4g1Q5EzU8fsjVX-9" value="" style="shape=actor;whiteSpace=wrap;html=1;" vertex="1" parent="i5YRdk4g1Q5EzU8fsjVX-6">
          <mxGeometry x="280" y="630" width="33.33" height="50" as="geometry" />
        </mxCell>
        <mxCell id="i5YRdk4g1Q5EzU8fsjVX-10" value="" style="shape=actor;whiteSpace=wrap;html=1;" vertex="1" parent="i5YRdk4g1Q5EzU8fsjVX-6">
          <mxGeometry x="346.67" y="530" width="33.33" height="50" as="geometry" />
        </mxCell>
        <mxCell id="i5YRdk4g1Q5EzU8fsjVX-11" value="" style="shape=actor;whiteSpace=wrap;html=1;" vertex="1" parent="i5YRdk4g1Q5EzU8fsjVX-6">
          <mxGeometry x="570.4300000000001" y="530" width="33.33" height="50" as="geometry" />
        </mxCell>
        <mxCell id="i5YRdk4g1Q5EzU8fsjVX-12" value="" style="shape=actor;whiteSpace=wrap;html=1;" vertex="1" parent="i5YRdk4g1Q5EzU8fsjVX-6">
          <mxGeometry x="463.34000000000003" y="490" width="33.33" height="50" as="geometry" />
        </mxCell>
        <mxCell id="i5YRdk4g1Q5EzU8fsjVX-13" value="" style="endArrow=classic;html=1;rounded=0;" edge="1" parent="i5YRdk4g1Q5EzU8fsjVX-6" target="i5YRdk4g1Q5EzU8fsjVX-4">
          <mxGeometry width="50" height="50" relative="1" as="geometry">
            <mxPoint x="320" y="780" as="sourcePoint" />
            <mxPoint x="358.2595723757163" y="798.3964874462449" as="targetPoint" />
          </mxGeometry>
        </mxCell>
        <mxCell id="i5YRdk4g1Q5EzU8fsjVX-14" value="" style="endArrow=classic;html=1;rounded=0;" edge="1" parent="i5YRdk4g1Q5EzU8fsjVX-6" target="i5YRdk4g1Q5EzU8fsjVX-4">
          <mxGeometry width="50" height="50" relative="1" as="geometry">
            <mxPoint x="324.84" y="683.87" as="sourcePoint" />
            <mxPoint x="401.84" y="715.87" as="targetPoint" />
          </mxGeometry>
        </mxCell>
        <mxCell id="i5YRdk4g1Q5EzU8fsjVX-15" value="" style="endArrow=classic;html=1;rounded=0;" edge="1" parent="i5YRdk4g1Q5EzU8fsjVX-6" target="i5YRdk4g1Q5EzU8fsjVX-4">
          <mxGeometry width="50" height="50" relative="1" as="geometry">
            <mxPoint x="380" y="590" as="sourcePoint" />
            <mxPoint x="472.15999999999997" y="688.13" as="targetPoint" />
          </mxGeometry>
        </mxCell>
        <mxCell id="i5YRdk4g1Q5EzU8fsjVX-16" value="" style="endArrow=classic;html=1;rounded=0;entryX=0.5;entryY=0;entryDx=0;entryDy=0;" edge="1" parent="i5YRdk4g1Q5EzU8fsjVX-6" target="i5YRdk4g1Q5EzU8fsjVX-4">
          <mxGeometry width="50" height="50" relative="1" as="geometry">
            <mxPoint x="483" y="560" as="sourcePoint" />
            <mxPoint x="550" y="733" as="targetPoint" />
          </mxGeometry>
        </mxCell>
        <mxCell id="i5YRdk4g1Q5EzU8fsjVX-17" value="" style="endArrow=classic;html=1;rounded=0;" edge="1" parent="i5YRdk4g1Q5EzU8fsjVX-6" target="i5YRdk4g1Q5EzU8fsjVX-4">
          <mxGeometry width="50" height="50" relative="1" as="geometry">
            <mxPoint x="573.4300000000001" y="593" as="sourcePoint" />
            <mxPoint x="570.4300000000001" y="790" as="targetPoint" />
          </mxGeometry>
        </mxCell>
        <mxCell id="i5YRdk4g1Q5EzU8fsjVX-18" value="" style="endArrow=classic;html=1;rounded=0;entryX=1;entryY=0;entryDx=0;entryDy=0;" edge="1" parent="i5YRdk4g1Q5EzU8fsjVX-6" target="i5YRdk4g1Q5EzU8fsjVX-4">
          <mxGeometry width="50" height="50" relative="1" as="geometry">
            <mxPoint x="632.86" y="710" as="sourcePoint" />
            <mxPoint x="570.43" y="879" as="targetPoint" />
          </mxGeometry>
        </mxCell>
        <mxCell id="i5YRdk4g1Q5EzU8fsjVX-22" value="" style="shape=actor;whiteSpace=wrap;html=1;" vertex="1" parent="i5YRdk4g1Q5EzU8fsjVX-6">
          <mxGeometry x="280" y="300" width="33.33" height="50" as="geometry" />
        </mxCell>
        <mxCell id="i5YRdk4g1Q5EzU8fsjVX-23" value="" style="shape=actor;whiteSpace=wrap;html=1;" vertex="1" parent="i5YRdk4g1Q5EzU8fsjVX-6">
          <mxGeometry x="560" y="270" width="33.33" height="50" as="geometry" />
        </mxCell>
        <mxCell id="i5YRdk4g1Q5EzU8fsjVX-24" value="" style="shape=actor;whiteSpace=wrap;html=1;" vertex="1" parent="i5YRdk4g1Q5EzU8fsjVX-6">
          <mxGeometry x="740" y="406.39" width="33.33" height="50" as="geometry" />
        </mxCell>
        <mxCell id="i5YRdk4g1Q5EzU8fsjVX-25" value="" style="shape=actor;whiteSpace=wrap;html=1;" vertex="1" parent="i5YRdk4g1Q5EzU8fsjVX-6">
          <mxGeometry x="760" y="230" width="33.33" height="50" as="geometry" />
        </mxCell>
        <mxCell id="i5YRdk4g1Q5EzU8fsjVX-28" value="&lt;b&gt;&lt;font style=&quot;font-size: 18px;&quot;&gt;OncoDetect&lt;/font&gt;&lt;/b&gt;" style="text;html=1;align=center;verticalAlign=middle;whiteSpace=wrap;rounded=0;" vertex="1" parent="i5YRdk4g1Q5EzU8fsjVX-6">
          <mxGeometry x="415" y="832.09" width="130" height="30" as="geometry" />
        </mxCell>
      </root>
    </mxGraphModel>
  </diagram>
</mxfile>
